<?xml version="1.0" standalone="yes"?>
<!-- SVG graphic -->
<svg xmlns='http://www.w3.org/2000/svg' xmlns:xlink='http://www.w3.org/1999/xlink'
 version="1.1">
<rect x="0" y="1.52588e-05" width="6" height="200" stroke="black" stroke-width="1" fill="blue" tooltip="enable"><title>(0,10912)</title></rect><rect x="6" y="102.053" width="6" height="97.9472" stroke="black" stroke-width="1" fill="blue" tooltip="enable"><title>(0.0397444,5344)</title></rect><rect x="12" y="129.069" width="6" height="70.9311" stroke="black" stroke-width="1" fill="blue" tooltip="enable"><title>(0.0794888,3870)</title></rect><rect x="18" y="142.394" width="6" height="57.6063" stroke="black" stroke-width="1" fill="blue" tooltip="enable"><title>(0.119233,3143)</title></rect><rect x="24" y="150.715" width="6" height="49.2852" stroke="black" stroke-width="1" fill="blue" tooltip="enable"><title>(0.158978,2689)</title></rect><rect x="30" y="154.857" width="6" height="45.143" stroke="black" stroke-width="1" fill="blue" tooltip="enable"><title>(0.198722,2463)</title></rect><rect x="36" y="159.989" width="6" height="40.011" stroke="black" stroke-width="1" fill="blue" tooltip="enable"><title>(0.238466,2183)</title></rect><rect x="42" y="162.097" width="6" height="37.9032" stroke="black" stroke-width="1" fill="blue" tooltip="enable"><title>(0.278211,2068)</title></rect><rect x="48" y="166.129" width="6" height="33.871" stroke="black" stroke-width="1" fill="blue" tooltip="enable"><title>(0.317955,1848)</title></rect><rect x="54" y="169.208" width="6" height="30.7918" stroke="black" stroke-width="1" fill="blue" tooltip="enable"><title>(0.357699,1680)</title></rect><rect x="60" y="169.795" width="6" height="30.2053" stroke="black" stroke-width="1" fill="blue" tooltip="enable"><title>(0.397444,1648)</title></rect><rect x="66" y="173.589" width="6" height="26.4113" stroke="black" stroke-width="1" fill="blue" tooltip="enable"><title>(0.437188,1441)</title></rect><rect x="72" y="175.385" width="6" height="24.6151" stroke="black" stroke-width="1" fill="blue" tooltip="enable"><title>(0.476933,1343)</title></rect><rect x="78" y="177.181" width="6" height="22.8189" stroke="black" stroke-width="1" fill="blue" tooltip="enable"><title>(0.516677,1245)</title></rect><rect x="84" y="180.48" width="6" height="19.5198" stroke="black" stroke-width="1" fill="blue" tooltip="enable"><title>(0.556421,1065)</title></rect><rect x="90" y="181.452" width="6" height="18.5484" stroke="black" stroke-width="1" fill="blue" tooltip="enable"><title>(0.596166,1012)</title></rect><rect x="96" y="182.46" width="6" height="17.5403" stroke="black" stroke-width="1" fill="blue" tooltip="enable"><title>(0.63591,957)</title></rect><rect x="102" y="183.376" width="6" height="16.6239" stroke="black" stroke-width="1" fill="blue" tooltip="enable"><title>(0.675655,907)</title></rect><rect x="108" y="184.897" width="6" height="15.1026" stroke="black" stroke-width="1" fill="blue" tooltip="enable"><title>(0.715399,824)</title></rect><rect x="114" y="186.199" width="6" height="13.8013" stroke="black" stroke-width="1" fill="blue" tooltip="enable"><title>(0.755143,753)</title></rect><rect x="120" y="187.592" width="6" height="12.4084" stroke="black" stroke-width="1" fill="blue" tooltip="enable"><title>(0.794888,677)</title></rect><rect x="126" y="187.647" width="6" height="12.3534" stroke="black" stroke-width="1" fill="blue" tooltip="enable"><title>(0.834632,674)</title></rect><rect x="132" y="188.618" width="6" height="11.382" stroke="black" stroke-width="1" fill="blue" tooltip="enable"><title>(0.874376,621)</title></rect><rect x="138" y="189.626" width="6" height="10.3739" stroke="black" stroke-width="1" fill="blue" tooltip="enable"><title>(0.914121,566)</title></rect><rect x="144" y="191.129" width="6" height="8.87097" stroke="black" stroke-width="1" fill="blue" tooltip="enable"><title>(0.953865,484)</title></rect><rect x="150" y="190.836" width="6" height="9.16422" stroke="black" stroke-width="1" fill="blue" tooltip="enable"><title>(0.99361,500)</title></rect><rect x="156" y="191.037" width="6" height="8.96261" stroke="black" stroke-width="1" fill="blue" tooltip="enable"><title>(1.03335,489)</title></rect><rect x="162" y="192.357" width="6" height="7.64296" stroke="black" stroke-width="1" fill="blue" tooltip="enable"><title>(1.0731,417)</title></rect><rect x="168" y="192.907" width="6" height="7.09311" stroke="black" stroke-width="1" fill="blue" tooltip="enable"><title>(1.11284,387)</title></rect><rect x="174" y="193.42" width="6" height="6.57991" stroke="black" stroke-width="1" fill="blue" tooltip="enable"><title>(1.15259,359)</title></rect><rect x="180" y="193.897" width="6" height="6.10337" stroke="black" stroke-width="1" fill="blue" tooltip="enable"><title>(1.19233,333)</title></rect><rect x="186" y="193.42" width="6" height="6.57991" stroke="black" stroke-width="1" fill="blue" tooltip="enable"><title>(1.23208,359)</title></rect><rect x="192" y="193.86" width="6" height="6.14003" stroke="black" stroke-width="1" fill="blue" tooltip="enable"><title>(1.27182,335)</title></rect><rect x="198" y="194.795" width="6" height="5.20528" stroke="black" stroke-width="1" fill="blue" tooltip="enable"><title>(1.31156,284)</title></rect><rect x="204" y="194.886" width="6" height="5.11364" stroke="black" stroke-width="1" fill="blue" tooltip="enable"><title>(1.35131,279)</title></rect><rect x="210" y="195.821" width="6" height="4.17889" stroke="black" stroke-width="1" fill="blue" tooltip="enable"><title>(1.39105,228)</title></rect><rect x="216" y="195.821" width="6" height="4.17889" stroke="black" stroke-width="1" fill="blue" tooltip="enable"><title>(1.4308,228)</title></rect><rect x="222" y="195.949" width="6" height="4.05059" stroke="black" stroke-width="1" fill="blue" tooltip="enable"><title>(1.47054,221)</title></rect><rect x="228" y="196.169" width="6" height="3.83065" stroke="black" stroke-width="1" fill="blue" tooltip="enable"><title>(1.51029,209)</title></rect><rect x="234" y="196.426" width="6" height="3.57405" stroke="black" stroke-width="1" fill="blue" tooltip="enable"><title>(1.55003,195)</title></rect><rect x="240" y="196.298" width="6" height="3.70235" stroke="black" stroke-width="1" fill="blue" tooltip="enable"><title>(1.58978,202)</title></rect><rect x="246" y="196.701" width="6" height="3.29912" stroke="black" stroke-width="1" fill="blue" tooltip="enable"><title>(1.62952,180)</title></rect><rect x="252" y="197.471" width="6" height="2.52933" stroke="black" stroke-width="1" fill="blue" tooltip="enable"><title>(1.66926,138)</title></rect><rect x="258" y="196.829" width="6" height="3.17082" stroke="black" stroke-width="1" fill="blue" tooltip="enable"><title>(1.70901,173)</title></rect><rect x="264" y="196.976" width="6" height="3.02419" stroke="black" stroke-width="1" fill="blue" tooltip="enable"><title>(1.74875,165)</title></rect><rect x="270" y="197.562" width="6" height="2.43768" stroke="black" stroke-width="1" fill="blue" tooltip="enable"><title>(1.7885,133)</title></rect><rect x="276" y="197.746" width="6" height="2.2544" stroke="black" stroke-width="1" fill="blue" tooltip="enable"><title>(1.82824,123)</title></rect><rect x="282" y="197.654" width="6" height="2.34604" stroke="black" stroke-width="1" fill="blue" tooltip="enable"><title>(1.86799,128)</title></rect><rect x="288" y="198.021" width="6" height="1.97947" stroke="black" stroke-width="1" fill="blue" tooltip="enable"><title>(1.90773,108)</title></rect><rect x="294" y="198.112" width="6" height="1.88783" stroke="black" stroke-width="1" fill="blue" tooltip="enable"><title>(1.94747,103)</title></rect><rect x="300" y="197.837" width="6" height="2.16276" stroke="black" stroke-width="1" fill="blue" tooltip="enable"><title>(1.98722,118)</title></rect><rect x="306" y="198.076" width="6" height="1.92449" stroke="black" stroke-width="1" fill="blue" tooltip="enable"><title>(2.02696,105)</title></rect><rect x="312" y="198.277" width="6" height="1.72287" stroke="black" stroke-width="1" fill="blue" tooltip="enable"><title>(2.06671,94)</title></rect><rect x="318" y="198.35" width="6" height="1.64956" stroke="black" stroke-width="1" fill="blue" tooltip="enable"><title>(2.10645,90)</title></rect><rect x="324" y="198.57" width="6" height="1.42962" stroke="black" stroke-width="1" fill="blue" tooltip="enable"><title>(2.1462,78)</title></rect><rect x="330" y="198.57" width="6" height="1.42962" stroke="black" stroke-width="1" fill="blue" tooltip="enable"><title>(2.18594,78)</title></rect><rect x="336" y="198.772" width="6" height="1.22801" stroke="black" stroke-width="1" fill="blue" tooltip="enable"><title>(2.22569,67)</title></rect><rect x="342" y="198.845" width="6" height="1.15469" stroke="black" stroke-width="1" fill="blue" tooltip="enable"><title>(2.26543,63)</title></rect><rect x="348" y="198.479" width="6" height="1.52126" stroke="black" stroke-width="1" fill="blue" tooltip="enable"><title>(2.30517,83)</title></rect><rect x="354" y="198.717" width="6" height="1.28299" stroke="black" stroke-width="1" fill="blue" tooltip="enable"><title>(2.34492,70)</title></rect><rect x="360" y="198.937" width="6" height="1.06305" stroke="black" stroke-width="1" fill="blue" tooltip="enable"><title>(2.38466,58)</title></rect><rect x="366" y="199.102" width="6" height="0.898094" stroke="black" stroke-width="1" fill="blue" tooltip="enable"><title>(2.42441,49)</title></rect><rect x="372" y="199.139" width="6" height="0.861437" stroke="black" stroke-width="1" fill="blue" tooltip="enable"><title>(2.46415,47)</title></rect><rect x="378" y="199.157" width="6" height="0.843108" stroke="black" stroke-width="1" fill="blue" tooltip="enable"><title>(2.5039,46)</title></rect><rect x="384" y="199.597" width="6" height="0.403226" stroke="black" stroke-width="1" fill="blue" tooltip="enable"><title>(2.54364,22)</title></rect><rect x="390" y="199.267" width="6" height="0.733138" stroke="black" stroke-width="1" fill="blue" tooltip="enable"><title>(2.58338,40)</title></rect><rect x="396" y="199.395" width="6" height="0.604839" stroke="black" stroke-width="1" fill="blue" tooltip="enable"><title>(2.62313,33)</title></rect><rect x="402" y="199.304" width="6" height="0.696481" stroke="black" stroke-width="1" fill="blue" tooltip="enable"><title>(2.66287,38)</title></rect><rect x="408" y="199.157" width="6" height="0.843108" stroke="black" stroke-width="1" fill="blue" tooltip="enable"><title>(2.70262,46)</title></rect><rect x="414" y="199.432" width="6" height="0.568182" stroke="black" stroke-width="1" fill="blue" tooltip="enable"><title>(2.74236,31)</title></rect><rect x="420" y="199.597" width="6" height="0.403226" stroke="black" stroke-width="1" fill="blue" tooltip="enable"><title>(2.78211,22)</title></rect><rect x="426" y="199.432" width="6" height="0.568182" stroke="black" stroke-width="1" fill="blue" tooltip="enable"><title>(2.82185,31)</title></rect><rect x="432" y="199.542" width="6" height="0.458211" stroke="black" stroke-width="1" fill="blue" tooltip="enable"><title>(2.8616,25)</title></rect><rect x="438" y="199.413" width="6" height="0.58651" stroke="black" stroke-width="1" fill="blue" tooltip="enable"><title>(2.90134,32)</title></rect><rect x="444" y="199.432" width="6" height="0.568182" stroke="black" stroke-width="1" fill="blue" tooltip="enable"><title>(2.94108,31)</title></rect><rect x="450" y="199.615" width="6" height="0.384897" stroke="black" stroke-width="1" fill="blue" tooltip="enable"><title>(2.98083,21)</title></rect><rect x="456" y="199.743" width="6" height="0.256598" stroke="black" stroke-width="1" fill="blue" tooltip="enable"><title>(3.02057,14)</title></rect><rect x="462" y="199.542" width="6" height="0.458211" stroke="black" stroke-width="1" fill="blue" tooltip="enable"><title>(3.06032,25)</title></rect><rect x="468" y="199.67" width="6" height="0.329912" stroke="black" stroke-width="1" fill="blue" tooltip="enable"><title>(3.10006,18)</title></rect><rect x="474" y="199.78" width="6" height="0.219941" stroke="black" stroke-width="1" fill="blue" tooltip="enable"><title>(3.13981,12)</title></rect><rect x="480" y="199.652" width="6" height="0.34824" stroke="black" stroke-width="1" fill="blue" tooltip="enable"><title>(3.17955,19)</title></rect><rect x="486" y="199.67" width="6" height="0.329912" stroke="black" stroke-width="1" fill="blue" tooltip="enable"><title>(3.2193,18)</title></rect><rect x="492" y="199.743" width="6" height="0.256598" stroke="black" stroke-width="1" fill="blue" tooltip="enable"><title>(3.25904,14)</title></rect><rect x="498" y="199.688" width="6" height="0.311584" stroke="black" stroke-width="1" fill="blue" tooltip="enable"><title>(3.29878,17)</title></rect><rect x="504" y="199.725" width="6" height="0.274927" stroke="black" stroke-width="1" fill="blue" tooltip="enable"><title>(3.33853,15)</title></rect><rect x="510" y="199.762" width="6" height="0.23827" stroke="black" stroke-width="1" fill="blue" tooltip="enable"><title>(3.37827,13)</title></rect><rect x="516" y="199.89" width="6" height="0.109971" stroke="black" stroke-width="1" fill="blue" tooltip="enable"><title>(3.41802,6)</title></rect><rect x="522" y="199.853" width="6" height="0.146628" stroke="black" stroke-width="1" fill="blue" tooltip="enable"><title>(3.45776,8)</title></rect><rect x="528" y="199.798" width="6" height="0.201613" stroke="black" stroke-width="1" fill="blue" tooltip="enable"><title>(3.49751,11)</title></rect><rect x="534" y="199.78" width="6" height="0.219941" stroke="black" stroke-width="1" fill="blue" tooltip="enable"><title>(3.53725,12)</title></rect><rect x="540" y="199.89" width="6" height="0.109971" stroke="black" stroke-width="1" fill="blue" tooltip="enable"><title>(3.57699,6)</title></rect><rect x="546" y="199.89" width="6" height="0.109971" stroke="black" stroke-width="1" fill="blue" tooltip="enable"><title>(3.61674,6)</title></rect><rect x="552" y="199.908" width="6" height="0.0916422" stroke="black" stroke-width="1" fill="blue" tooltip="enable"><title>(3.65648,5)</title></rect><rect x="558" y="199.872" width="6" height="0.128299" stroke="black" stroke-width="1" fill="blue" tooltip="enable"><title>(3.69623,7)</title></rect><rect x="564" y="199.945" width="6" height="0.0549853" stroke="black" stroke-width="1" fill="blue" tooltip="enable"><title>(3.73597,3)</title></rect><rect x="570" y="199.982" width="6" height="0.0183284" stroke="black" stroke-width="1" fill="blue" tooltip="enable"><title>(3.77572,1)</title></rect><rect x="576" y="199.982" width="6" height="0.0183284" stroke="black" stroke-width="1" fill="blue" tooltip="enable"><title>(3.81546,1)</title></rect><rect x="582" y="199.963" width="6" height="0.0366569" stroke="black" stroke-width="1" fill="blue" tooltip="enable"><title>(3.85521,2)</title></rect><rect x="588" y="199.982" width="6" height="0.0183284" stroke="black" stroke-width="1" fill="blue" tooltip="enable"><title>(3.89495,1)</title></rect><rect x="594" y="200" width="6" height="0" stroke="black" stroke-width="1" fill="blue" tooltip="enable"><title>(3.93469,0)</title></rect><text x="30" y="240" font-size="20" fill="black">0</text>
<text x="600" y="240" font-size="20" fill="black">3.97444</text>
<polyline points="0,220,600,220" stroke="black" stroke-width="1" fill="none"/>
<text x="720" y="20" font-size="20" fill="black">10912</text>
<text x="720" y="200" font-size="20" fill="black">0</text>
<polyline points="660,0,660,200" stroke="black" stroke-width="1" fill="none"/>
</svg>