<?xml version="1.0" standalone="yes"?>
<!-- SVG graphic -->
<svg xmlns='http://www.w3.org/2000/svg' xmlns:xlink='http://www.w3.org/1999/xlink'
width="150px" height="150px" preserveAspectRatio="xMinYMin meet" viewBox="0 0 150 150" version="1.1">
<rect x="5" y="0" width="2.5" height="2.5" fill="rgb(255,0,0)" tooltip="enable"><title>(1,0 3168)</title></rect><rect x="10" y="0" width="2.5" height="2.5" fill="rgb(104,0,150)" tooltip="enable"><title>(2,0 1298)</title></rect><rect x="15" y="0" width="2.5" height="2.5" fill="rgb(80,0,174)" tooltip="enable"><title>(3,0 995)</title></rect><rect x="20" y="0" width="2.5" height="2.5" fill="rgb(45,0,209)" tooltip="enable"><title>(4,0 563)</title></rect><rect x="25" y="0" width="2.5" height="2.5" fill="rgb(66,0,188)" tooltip="enable"><title>(5,0 830)</title></rect><rect x="30" y="0" width="2.5" height="2.5" fill="rgb(67,0,187)" tooltip="enable"><title>(6,0 841)</title></rect><rect x="35" y="0" width="2.5" height="2.5" fill="rgb(74,0,180)" tooltip="enable"><title>(7,0 925)</title></rect><rect x="40" y="0" width="2.5" height="2.5" fill="rgb(66,0,188)" tooltip="enable"><title>(8,0 826)</title></rect><rect x="45" y="0" width="2.5" height="2.5" fill="rgb(60,0,194)" tooltip="enable"><title>(9,0 755)</title></rect><rect x="50" y="0" width="2.5" height="2.5" fill="rgb(76,0,178)" tooltip="enable"><title>(10,0 949)</title></rect><rect x="55" y="0" width="2.5" height="2.5" fill="rgb(69,0,185)" tooltip="enable"><title>(11,0 858)</title></rect><rect x="60" y="0" width="2.5" height="2.5" fill="rgb(70,0,184)" tooltip="enable"><title>(12,0 876)</title></rect><rect x="65" y="0" width="2.5" height="2.5" fill="rgb(81,0,173)" tooltip="enable"><title>(13,0 1017)</title></rect><rect x="70" y="0" width="2.5" height="2.5" fill="rgb(71,0,183)" tooltip="enable"><title>(14,0 890)</title></rect><rect x="75" y="0" width="2.5" height="2.5" fill="rgb(72,0,182)" tooltip="enable"><title>(15,0 896)</title></rect><rect x="80" y="0" width="2.5" height="2.5" fill="rgb(51,0,203)" tooltip="enable"><title>(16,0 634)</title></rect><rect x="85" y="0" width="2.5" height="2.5" fill="rgb(51,0,203)" tooltip="enable"><title>(17,0 641)</title></rect><rect x="90" y="0" width="2.5" height="2.5" fill="rgb(56,0,198)" tooltip="enable"><title>(18,0 696)</title></rect><rect x="95" y="0" width="2.5" height="2.5" fill="rgb(64,0,190)" tooltip="enable"><title>(19,0 805)</title></rect><rect x="100" y="0" width="2.5" height="2.5" fill="rgb(126,0,128)" tooltip="enable"><title>(20,0 1576)</title></rect><rect x="105" y="0" width="2.5" height="2.5" fill="rgb(69,0,185)" tooltip="enable"><title>(21,0 858)</title></rect><rect x="110" y="0" width="2.5" height="2.5" fill="rgb(44,0,210)" tooltip="enable"><title>(22,0 558)</title></rect><rect x="115" y="0" width="2.5" height="2.5" fill="rgb(39,0,215)" tooltip="enable"><title>(23,0 494)</title></rect><rect x="120" y="0" width="2.5" height="2.5" fill="rgb(31,0,223)" tooltip="enable"><title>(24,0 389)</title></rect><rect x="125" y="0" width="2.5" height="2.5" fill="rgb(23,0,231)" tooltip="enable"><title>(25,0 291)</title></rect><rect x="130" y="0" width="2.5" height="2.5" fill="rgb(37,0,217)" tooltip="enable"><title>(26,0 465)</title></rect><rect x="10" y="5" width="2.5" height="2.5" fill="rgb(104,0,150)" tooltip="enable"><title>(2,1 1299)</title></rect><rect x="15" y="5" width="2.5" height="2.5" fill="rgb(73,0,181)" tooltip="enable"><title>(3,1 919)</title></rect><rect x="20" y="5" width="2.5" height="2.5" fill="rgb(43,0,211)" tooltip="enable"><title>(4,1 546)</title></rect><rect x="25" y="5" width="2.5" height="2.5" fill="rgb(68,0,186)" tooltip="enable"><title>(5,1 846)</title></rect><rect x="30" y="5" width="2.5" height="2.5" fill="rgb(65,0,189)" tooltip="enable"><title>(6,1 812)</title></rect><rect x="35" y="5" width="2.5" height="2.5" fill="rgb(69,0,185)" tooltip="enable"><title>(7,1 858)</title></rect><rect x="40" y="5" width="2.5" height="2.5" fill="rgb(61,0,193)" tooltip="enable"><title>(8,1 767)</title></rect><rect x="45" y="5" width="2.5" height="2.5" fill="rgb(54,0,200)" tooltip="enable"><title>(9,1 675)</title></rect><rect x="50" y="5" width="2.5" height="2.5" fill="rgb(73,0,181)" tooltip="enable"><title>(10,1 907)</title></rect><rect x="55" y="5" width="2.5" height="2.5" fill="rgb(63,0,191)" tooltip="enable"><title>(11,1 794)</title></rect><rect x="60" y="5" width="2.5" height="2.5" fill="rgb(66,0,188)" tooltip="enable"><title>(12,1 824)</title></rect><rect x="65" y="5" width="2.5" height="2.5" fill="rgb(79,0,175)" tooltip="enable"><title>(13,1 990)</title></rect><rect x="70" y="5" width="2.5" height="2.5" fill="rgb(71,0,183)" tooltip="enable"><title>(14,1 890)</title></rect><rect x="75" y="5" width="2.5" height="2.5" fill="rgb(67,0,187)" tooltip="enable"><title>(15,1 840)</title></rect><rect x="80" y="5" width="2.5" height="2.5" fill="rgb(51,0,203)" tooltip="enable"><title>(16,1 634)</title></rect><rect x="85" y="5" width="2.5" height="2.5" fill="rgb(50,0,204)" tooltip="enable"><title>(17,1 625)</title></rect><rect x="90" y="5" width="2.5" height="2.5" fill="rgb(48,0,206)" tooltip="enable"><title>(18,1 607)</title></rect><rect x="95" y="5" width="2.5" height="2.5" fill="rgb(62,0,192)" tooltip="enable"><title>(19,1 782)</title></rect><rect x="100" y="5" width="2.5" height="2.5" fill="rgb(112,0,142)" tooltip="enable"><title>(20,1 1392)</title></rect><rect x="105" y="5" width="2.5" height="2.5" fill="rgb(64,0,190)" tooltip="enable"><title>(21,1 799)</title></rect><rect x="110" y="5" width="2.5" height="2.5" fill="rgb(48,0,206)" tooltip="enable"><title>(22,1 600)</title></rect><rect x="115" y="5" width="2.5" height="2.5" fill="rgb(38,0,216)" tooltip="enable"><title>(23,1 478)</title></rect><rect x="120" y="5" width="2.5" height="2.5" fill="rgb(27,0,227)" tooltip="enable"><title>(24,1 341)</title></rect><rect x="125" y="5" width="2.5" height="2.5" fill="rgb(21,0,233)" tooltip="enable"><title>(25,1 261)</title></rect><rect x="130" y="5" width="2.5" height="2.5" fill="rgb(38,0,216)" tooltip="enable"><title>(26,1 479)</title></rect><rect x="15" y="10" width="2.5" height="2.5" fill="rgb(88,0,166)" tooltip="enable"><title>(3,2 1099)</title></rect><rect x="20" y="10" width="2.5" height="2.5" fill="rgb(42,0,212)" tooltip="enable"><title>(4,2 533)</title></rect><rect x="25" y="10" width="2.5" height="2.5" fill="rgb(60,0,194)" tooltip="enable"><title>(5,2 753)</title></rect><rect x="30" y="10" width="2.5" height="2.5" fill="rgb(57,0,197)" tooltip="enable"><title>(6,2 719)</title></rect><rect x="35" y="10" width="2.5" height="2.5" fill="rgb(68,0,186)" tooltip="enable"><title>(7,2 851)</title></rect><rect x="40" y="10" width="2.5" height="2.5" fill="rgb(61,0,193)" tooltip="enable"><title>(8,2 760)</title></rect><rect x="45" y="10" width="2.5" height="2.5" fill="rgb(53,0,201)" tooltip="enable"><title>(9,2 669)</title></rect><rect x="50" y="10" width="2.5" height="2.5" fill="rgb(69,0,185)" tooltip="enable"><title>(10,2 865)</title></rect><rect x="55" y="10" width="2.5" height="2.5" fill="rgb(58,0,196)" tooltip="enable"><title>(11,2 730)</title></rect><rect x="60" y="10" width="2.5" height="2.5" fill="rgb(63,0,191)" tooltip="enable"><title>(12,2 785)</title></rect><rect x="65" y="10" width="2.5" height="2.5" fill="rgb(72,0,182)" tooltip="enable"><title>(13,2 904)</title></rect><rect x="70" y="10" width="2.5" height="2.5" fill="rgb(67,0,187)" tooltip="enable"><title>(14,2 833)</title></rect><rect x="75" y="10" width="2.5" height="2.5" fill="rgb(66,0,188)" tooltip="enable"><title>(15,2 829)</title></rect><rect x="80" y="10" width="2.5" height="2.5" fill="rgb(47,0,207)" tooltip="enable"><title>(16,2 585)</title></rect><rect x="85" y="10" width="2.5" height="2.5" fill="rgb(45,0,209)" tooltip="enable"><title>(17,2 566)</title></rect><rect x="90" y="10" width="2.5" height="2.5" fill="rgb(47,0,207)" tooltip="enable"><title>(18,2 594)</title></rect><rect x="95" y="10" width="2.5" height="2.5" fill="rgb(45,0,209)" tooltip="enable"><title>(19,2 568)</title></rect><rect x="100" y="10" width="2.5" height="2.5" fill="rgb(59,0,195)" tooltip="enable"><title>(20,2 741)</title></rect><rect x="105" y="10" width="2.5" height="2.5" fill="rgb(53,0,201)" tooltip="enable"><title>(21,2 661)</title></rect><rect x="110" y="10" width="2.5" height="2.5" fill="rgb(41,0,213)" tooltip="enable"><title>(22,2 521)</title></rect><rect x="115" y="10" width="2.5" height="2.5" fill="rgb(32,0,222)" tooltip="enable"><title>(23,2 404)</title></rect><rect x="120" y="10" width="2.5" height="2.5" fill="rgb(31,0,223)" tooltip="enable"><title>(24,2 386)</title></rect><rect x="125" y="10" width="2.5" height="2.5" fill="rgb(20,0,234)" tooltip="enable"><title>(25,2 250)</title></rect><rect x="130" y="10" width="2.5" height="2.5" fill="rgb(34,0,220)" tooltip="enable"><title>(26,2 434)</title></rect><rect x="20" y="15" width="2.5" height="2.5" fill="rgb(50,0,204)" tooltip="enable"><title>(4,3 633)</title></rect><rect x="25" y="15" width="2.5" height="2.5" fill="rgb(67,0,187)" tooltip="enable"><title>(5,3 843)</title></rect><rect x="30" y="15" width="2.5" height="2.5" fill="rgb(62,0,192)" tooltip="enable"><title>(6,3 776)</title></rect><rect x="35" y="15" width="2.5" height="2.5" fill="rgb(62,0,192)" tooltip="enable"><title>(7,3 775)</title></rect><rect x="40" y="15" width="2.5" height="2.5" fill="rgb(65,0,189)" tooltip="enable"><title>(8,3 815)</title></rect><rect x="45" y="15" width="2.5" height="2.5" fill="rgb(48,0,206)" tooltip="enable"><title>(9,3 606)</title></rect><rect x="50" y="15" width="2.5" height="2.5" fill="rgb(67,0,187)" tooltip="enable"><title>(10,3 834)</title></rect><rect x="55" y="15" width="2.5" height="2.5" fill="rgb(62,0,192)" tooltip="enable"><title>(11,3 775)</title></rect><rect x="60" y="15" width="2.5" height="2.5" fill="rgb(61,0,193)" tooltip="enable"><title>(12,3 762)</title></rect><rect x="65" y="15" width="2.5" height="2.5" fill="rgb(74,0,180)" tooltip="enable"><title>(13,3 923)</title></rect><rect x="70" y="15" width="2.5" height="2.5" fill="rgb(66,0,188)" tooltip="enable"><title>(14,3 823)</title></rect><rect x="75" y="15" width="2.5" height="2.5" fill="rgb(60,0,194)" tooltip="enable"><title>(15,3 750)</title></rect><rect x="80" y="15" width="2.5" height="2.5" fill="rgb(46,0,208)" tooltip="enable"><title>(16,3 573)</title></rect><rect x="85" y="15" width="2.5" height="2.5" fill="rgb(43,0,211)" tooltip="enable"><title>(17,3 544)</title></rect><rect x="90" y="15" width="2.5" height="2.5" fill="rgb(43,0,211)" tooltip="enable"><title>(18,3 536)</title></rect><rect x="95" y="15" width="2.5" height="2.5" fill="rgb(37,0,217)" tooltip="enable"><title>(19,3 464)</title></rect><rect x="100" y="15" width="2.5" height="2.5" fill="rgb(33,0,221)" tooltip="enable"><title>(20,3 421)</title></rect><rect x="105" y="15" width="2.5" height="2.5" fill="rgb(44,0,210)" tooltip="enable"><title>(21,3 547)</title></rect><rect x="110" y="15" width="2.5" height="2.5" fill="rgb(40,0,214)" tooltip="enable"><title>(22,3 498)</title></rect><rect x="115" y="15" width="2.5" height="2.5" fill="rgb(33,0,221)" tooltip="enable"><title>(23,3 412)</title></rect><rect x="120" y="15" width="2.5" height="2.5" fill="rgb(27,0,227)" tooltip="enable"><title>(24,3 338)</title></rect><rect x="125" y="15" width="2.5" height="2.5" fill="rgb(19,0,235)" tooltip="enable"><title>(25,3 240)</title></rect><rect x="130" y="15" width="2.5" height="2.5" fill="rgb(31,0,223)" tooltip="enable"><title>(26,3 396)</title></rect><rect x="25" y="20" width="2.5" height="2.5" fill="rgb(66,0,188)" tooltip="enable"><title>(5,4 820)</title></rect><rect x="30" y="20" width="2.5" height="2.5" fill="rgb(57,0,197)" tooltip="enable"><title>(6,4 712)</title></rect><rect x="35" y="20" width="2.5" height="2.5" fill="rgb(62,0,192)" tooltip="enable"><title>(7,4 772)</title></rect><rect x="40" y="20" width="2.5" height="2.5" fill="rgb(52,0,202)" tooltip="enable"><title>(8,4 655)</title></rect><rect x="45" y="20" width="2.5" height="2.5" fill="rgb(48,0,206)" tooltip="enable"><title>(9,4 604)</title></rect><rect x="50" y="20" width="2.5" height="2.5" fill="rgb(59,0,195)" tooltip="enable"><title>(10,4 743)</title></rect><rect x="55" y="20" width="2.5" height="2.5" fill="rgb(52,0,202)" tooltip="enable"><title>(11,4 649)</title></rect><rect x="60" y="20" width="2.5" height="2.5" fill="rgb(56,0,198)" tooltip="enable"><title>(12,4 700)</title></rect><rect x="65" y="20" width="2.5" height="2.5" fill="rgb(65,0,189)" tooltip="enable"><title>(13,4 808)</title></rect><rect x="70" y="20" width="2.5" height="2.5" fill="rgb(61,0,193)" tooltip="enable"><title>(14,4 767)</title></rect><rect x="75" y="20" width="2.5" height="2.5" fill="rgb(54,0,200)" tooltip="enable"><title>(15,4 677)</title></rect><rect x="80" y="20" width="2.5" height="2.5" fill="rgb(44,0,210)" tooltip="enable"><title>(16,4 551)</title></rect><rect x="85" y="20" width="2.5" height="2.5" fill="rgb(37,0,217)" tooltip="enable"><title>(17,4 463)</title></rect><rect x="90" y="20" width="2.5" height="2.5" fill="rgb(39,0,215)" tooltip="enable"><title>(18,4 490)</title></rect><rect x="95" y="20" width="2.5" height="2.5" fill="rgb(33,0,221)" tooltip="enable"><title>(19,4 422)</title></rect><rect x="100" y="20" width="2.5" height="2.5" fill="rgb(30,0,224)" tooltip="enable"><title>(20,4 385)</title></rect><rect x="105" y="20" width="2.5" height="2.5" fill="rgb(38,0,216)" tooltip="enable"><title>(21,4 477)</title></rect><rect x="110" y="20" width="2.5" height="2.5" fill="rgb(38,0,216)" tooltip="enable"><title>(22,4 473)</title></rect><rect x="115" y="20" width="2.5" height="2.5" fill="rgb(31,0,223)" tooltip="enable"><title>(23,4 392)</title></rect><rect x="120" y="20" width="2.5" height="2.5" fill="rgb(26,0,228)" tooltip="enable"><title>(24,4 330)</title></rect><rect x="125" y="20" width="2.5" height="2.5" fill="rgb(18,0,236)" tooltip="enable"><title>(25,4 235)</title></rect><rect x="130" y="20" width="2.5" height="2.5" fill="rgb(32,0,222)" tooltip="enable"><title>(26,4 404)</title></rect><rect x="30" y="25" width="2.5" height="2.5" fill="rgb(118,0,136)" tooltip="enable"><title>(6,5 1471)</title></rect><rect x="35" y="25" width="2.5" height="2.5" fill="rgb(70,0,184)" tooltip="enable"><title>(7,5 882)</title></rect><rect x="40" y="25" width="2.5" height="2.5" fill="rgb(53,0,201)" tooltip="enable"><title>(8,5 668)</title></rect><rect x="45" y="25" width="2.5" height="2.5" fill="rgb(48,0,206)" tooltip="enable"><title>(9,5 597)</title></rect><rect x="50" y="25" width="2.5" height="2.5" fill="rgb(60,0,194)" tooltip="enable"><title>(10,5 747)</title></rect><rect x="55" y="25" width="2.5" height="2.5" fill="rgb(51,0,203)" tooltip="enable"><title>(11,5 640)</title></rect><rect x="60" y="25" width="2.5" height="2.5" fill="rgb(53,0,201)" tooltip="enable"><title>(12,5 669)</title></rect><rect x="65" y="25" width="2.5" height="2.5" fill="rgb(63,0,191)" tooltip="enable"><title>(13,5 789)</title></rect><rect x="70" y="25" width="2.5" height="2.5" fill="rgb(55,0,199)" tooltip="enable"><title>(14,5 695)</title></rect><rect x="75" y="25" width="2.5" height="2.5" fill="rgb(56,0,198)" tooltip="enable"><title>(15,5 702)</title></rect><rect x="80" y="25" width="2.5" height="2.5" fill="rgb(38,0,216)" tooltip="enable"><title>(16,5 484)</title></rect><rect x="85" y="25" width="2.5" height="2.5" fill="rgb(39,0,215)" tooltip="enable"><title>(17,5 485)</title></rect><rect x="90" y="25" width="2.5" height="2.5" fill="rgb(36,0,218)" tooltip="enable"><title>(18,5 452)</title></rect><rect x="95" y="25" width="2.5" height="2.5" fill="rgb(32,0,222)" tooltip="enable"><title>(19,5 398)</title></rect><rect x="100" y="25" width="2.5" height="2.5" fill="rgb(29,0,225)" tooltip="enable"><title>(20,5 370)</title></rect><rect x="105" y="25" width="2.5" height="2.5" fill="rgb(35,0,219)" tooltip="enable"><title>(21,5 435)</title></rect><rect x="110" y="25" width="2.5" height="2.5" fill="rgb(33,0,221)" tooltip="enable"><title>(22,5 416)</title></rect><rect x="115" y="25" width="2.5" height="2.5" fill="rgb(28,0,226)" tooltip="enable"><title>(23,5 359)</title></rect><rect x="120" y="25" width="2.5" height="2.5" fill="rgb(24,0,230)" tooltip="enable"><title>(24,5 310)</title></rect><rect x="125" y="25" width="2.5" height="2.5" fill="rgb(18,0,236)" tooltip="enable"><title>(25,5 229)</title></rect><rect x="130" y="25" width="2.5" height="2.5" fill="rgb(32,0,222)" tooltip="enable"><title>(26,5 407)</title></rect><rect x="35" y="30" width="2.5" height="2.5" fill="rgb(151,0,103)" tooltip="enable"><title>(7,6 1883)</title></rect><rect x="40" y="30" width="2.5" height="2.5" fill="rgb(61,0,193)" tooltip="enable"><title>(8,6 762)</title></rect><rect x="45" y="30" width="2.5" height="2.5" fill="rgb(51,0,203)" tooltip="enable"><title>(9,6 642)</title></rect><rect x="50" y="30" width="2.5" height="2.5" fill="rgb(62,0,192)" tooltip="enable"><title>(10,6 782)</title></rect><rect x="55" y="30" width="2.5" height="2.5" fill="rgb(55,0,199)" tooltip="enable"><title>(11,6 687)</title></rect><rect x="60" y="30" width="2.5" height="2.5" fill="rgb(59,0,195)" tooltip="enable"><title>(12,6 737)</title></rect><rect x="65" y="30" width="2.5" height="2.5" fill="rgb(71,0,183)" tooltip="enable"><title>(13,6 892)</title></rect><rect x="70" y="30" width="2.5" height="2.5" fill="rgb(62,0,192)" tooltip="enable"><title>(14,6 778)</title></rect><rect x="75" y="30" width="2.5" height="2.5" fill="rgb(56,0,198)" tooltip="enable"><title>(15,6 699)</title></rect><rect x="80" y="30" width="2.5" height="2.5" fill="rgb(43,0,211)" tooltip="enable"><title>(16,6 542)</title></rect><rect x="85" y="30" width="2.5" height="2.5" fill="rgb(40,0,214)" tooltip="enable"><title>(17,6 502)</title></rect><rect x="90" y="30" width="2.5" height="2.5" fill="rgb(38,0,216)" tooltip="enable"><title>(18,6 481)</title></rect><rect x="95" y="30" width="2.5" height="2.5" fill="rgb(33,0,221)" tooltip="enable"><title>(19,6 422)</title></rect><rect x="100" y="30" width="2.5" height="2.5" fill="rgb(30,0,224)" tooltip="enable"><title>(20,6 378)</title></rect><rect x="105" y="30" width="2.5" height="2.5" fill="rgb(35,0,219)" tooltip="enable"><title>(21,6 446)</title></rect><rect x="110" y="30" width="2.5" height="2.5" fill="rgb(35,0,219)" tooltip="enable"><title>(22,6 441)</title></rect><rect x="115" y="30" width="2.5" height="2.5" fill="rgb(33,0,221)" tooltip="enable"><title>(23,6 410)</title></rect><rect x="120" y="30" width="2.5" height="2.5" fill="rgb(22,0,232)" tooltip="enable"><title>(24,6 285)</title></rect><rect x="125" y="30" width="2.5" height="2.5" fill="rgb(18,0,236)" tooltip="enable"><title>(25,6 225)</title></rect><rect x="130" y="30" width="2.5" height="2.5" fill="rgb(31,0,223)" tooltip="enable"><title>(26,6 390)</title></rect><rect x="40" y="35" width="2.5" height="2.5" fill="rgb(97,0,157)" tooltip="enable"><title>(8,7 1206)</title></rect><rect x="45" y="35" width="2.5" height="2.5" fill="rgb(64,0,190)" tooltip="enable"><title>(9,7 797)</title></rect><rect x="50" y="35" width="2.5" height="2.5" fill="rgb(67,0,187)" tooltip="enable"><title>(10,7 844)</title></rect><rect x="55" y="35" width="2.5" height="2.5" fill="rgb(57,0,197)" tooltip="enable"><title>(11,7 709)</title></rect><rect x="60" y="35" width="2.5" height="2.5" fill="rgb(63,0,191)" tooltip="enable"><title>(12,7 793)</title></rect><rect x="65" y="35" width="2.5" height="2.5" fill="rgb(70,0,184)" tooltip="enable"><title>(13,7 882)</title></rect><rect x="70" y="35" width="2.5" height="2.5" fill="rgb(58,0,196)" tooltip="enable"><title>(14,7 724)</title></rect><rect x="75" y="35" width="2.5" height="2.5" fill="rgb(59,0,195)" tooltip="enable"><title>(15,7 733)</title></rect><rect x="80" y="35" width="2.5" height="2.5" fill="rgb(42,0,212)" tooltip="enable"><title>(16,7 530)</title></rect><rect x="85" y="35" width="2.5" height="2.5" fill="rgb(40,0,214)" tooltip="enable"><title>(17,7 500)</title></rect><rect x="90" y="35" width="2.5" height="2.5" fill="rgb(35,0,219)" tooltip="enable"><title>(18,7 441)</title></rect><rect x="95" y="35" width="2.5" height="2.5" fill="rgb(32,0,222)" tooltip="enable"><title>(19,7 402)</title></rect><rect x="100" y="35" width="2.5" height="2.5" fill="rgb(29,0,225)" tooltip="enable"><title>(20,7 369)</title></rect><rect x="105" y="35" width="2.5" height="2.5" fill="rgb(38,0,216)" tooltip="enable"><title>(21,7 484)</title></rect><rect x="110" y="35" width="2.5" height="2.5" fill="rgb(38,0,216)" tooltip="enable"><title>(22,7 478)</title></rect><rect x="115" y="35" width="2.5" height="2.5" fill="rgb(32,0,222)" tooltip="enable"><title>(23,7 404)</title></rect><rect x="120" y="35" width="2.5" height="2.5" fill="rgb(25,0,229)" tooltip="enable"><title>(24,7 323)</title></rect><rect x="125" y="35" width="2.5" height="2.5" fill="rgb(18,0,236)" tooltip="enable"><title>(25,7 228)</title></rect><rect x="130" y="35" width="2.5" height="2.5" fill="rgb(32,0,222)" tooltip="enable"><title>(26,7 402)</title></rect><rect x="45" y="40" width="2.5" height="2.5" fill="rgb(114,0,140)" tooltip="enable"><title>(9,8 1425)</title></rect><rect x="50" y="40" width="2.5" height="2.5" fill="rgb(66,0,188)" tooltip="enable"><title>(10,8 828)</title></rect><rect x="55" y="40" width="2.5" height="2.5" fill="rgb(56,0,198)" tooltip="enable"><title>(11,8 702)</title></rect><rect x="60" y="40" width="2.5" height="2.5" fill="rgb(56,0,198)" tooltip="enable"><title>(12,8 704)</title></rect><rect x="65" y="40" width="2.5" height="2.5" fill="rgb(71,0,183)" tooltip="enable"><title>(13,8 883)</title></rect><rect x="70" y="40" width="2.5" height="2.5" fill="rgb(57,0,197)" tooltip="enable"><title>(14,8 713)</title></rect><rect x="75" y="40" width="2.5" height="2.5" fill="rgb(59,0,195)" tooltip="enable"><title>(15,8 742)</title></rect><rect x="80" y="40" width="2.5" height="2.5" fill="rgb(47,0,207)" tooltip="enable"><title>(16,8 591)</title></rect><rect x="85" y="40" width="2.5" height="2.5" fill="rgb(39,0,215)" tooltip="enable"><title>(17,8 492)</title></rect><rect x="90" y="40" width="2.5" height="2.5" fill="rgb(41,0,213)" tooltip="enable"><title>(18,8 515)</title></rect><rect x="95" y="40" width="2.5" height="2.5" fill="rgb(34,0,220)" tooltip="enable"><title>(19,8 434)</title></rect><rect x="100" y="40" width="2.5" height="2.5" fill="rgb(30,0,224)" tooltip="enable"><title>(20,8 373)</title></rect><rect x="105" y="40" width="2.5" height="2.5" fill="rgb(34,0,220)" tooltip="enable"><title>(21,8 428)</title></rect><rect x="110" y="40" width="2.5" height="2.5" fill="rgb(35,0,219)" tooltip="enable"><title>(22,8 444)</title></rect><rect x="115" y="40" width="2.5" height="2.5" fill="rgb(30,0,224)" tooltip="enable"><title>(23,8 381)</title></rect><rect x="120" y="40" width="2.5" height="2.5" fill="rgb(23,0,231)" tooltip="enable"><title>(24,8 289)</title></rect><rect x="125" y="40" width="2.5" height="2.5" fill="rgb(17,0,237)" tooltip="enable"><title>(25,8 212)</title></rect><rect x="130" y="40" width="2.5" height="2.5" fill="rgb(31,0,223)" tooltip="enable"><title>(26,8 389)</title></rect><rect x="50" y="45" width="2.5" height="2.5" fill="rgb(140,0,114)" tooltip="enable"><title>(10,9 1744)</title></rect><rect x="55" y="45" width="2.5" height="2.5" fill="rgb(87,0,167)" tooltip="enable"><title>(11,9 1091)</title></rect><rect x="60" y="45" width="2.5" height="2.5" fill="rgb(68,0,186)" tooltip="enable"><title>(12,9 856)</title></rect><rect x="65" y="45" width="2.5" height="2.5" fill="rgb(70,0,184)" tooltip="enable"><title>(13,9 881)</title></rect><rect x="70" y="45" width="2.5" height="2.5" fill="rgb(64,0,190)" tooltip="enable"><title>(14,9 806)</title></rect><rect x="75" y="45" width="2.5" height="2.5" fill="rgb(61,0,193)" tooltip="enable"><title>(15,9 766)</title></rect><rect x="80" y="45" width="2.5" height="2.5" fill="rgb(48,0,206)" tooltip="enable"><title>(16,9 600)</title></rect><rect x="85" y="45" width="2.5" height="2.5" fill="rgb(41,0,213)" tooltip="enable"><title>(17,9 515)</title></rect><rect x="90" y="45" width="2.5" height="2.5" fill="rgb(41,0,213)" tooltip="enable"><title>(18,9 515)</title></rect><rect x="95" y="45" width="2.5" height="2.5" fill="rgb(36,0,218)" tooltip="enable"><title>(19,9 459)</title></rect><rect x="100" y="45" width="2.5" height="2.5" fill="rgb(30,0,224)" tooltip="enable"><title>(20,9 384)</title></rect><rect x="105" y="45" width="2.5" height="2.5" fill="rgb(40,0,214)" tooltip="enable"><title>(21,9 505)</title></rect><rect x="110" y="45" width="2.5" height="2.5" fill="rgb(37,0,217)" tooltip="enable"><title>(22,9 464)</title></rect><rect x="115" y="45" width="2.5" height="2.5" fill="rgb(29,0,225)" tooltip="enable"><title>(23,9 368)</title></rect><rect x="120" y="45" width="2.5" height="2.5" fill="rgb(24,0,230)" tooltip="enable"><title>(24,9 299)</title></rect><rect x="125" y="45" width="2.5" height="2.5" fill="rgb(22,0,232)" tooltip="enable"><title>(25,9 274)</title></rect><rect x="130" y="45" width="2.5" height="2.5" fill="rgb(41,0,213)" tooltip="enable"><title>(26,9 521)</title></rect><rect x="55" y="50" width="2.5" height="2.5" fill="rgb(231,0,23)" tooltip="enable"><title>(11,10 2878)</title></rect><rect x="60" y="50" width="2.5" height="2.5" fill="rgb(74,0,180)" tooltip="enable"><title>(12,10 923)</title></rect><rect x="65" y="50" width="2.5" height="2.5" fill="rgb(65,0,189)" tooltip="enable"><title>(13,10 809)</title></rect><rect x="70" y="50" width="2.5" height="2.5" fill="rgb(57,0,197)" tooltip="enable"><title>(14,10 716)</title></rect><rect x="75" y="50" width="2.5" height="2.5" fill="rgb(55,0,199)" tooltip="enable"><title>(15,10 686)</title></rect><rect x="80" y="50" width="2.5" height="2.5" fill="rgb(40,0,214)" tooltip="enable"><title>(16,10 501)</title></rect><rect x="85" y="50" width="2.5" height="2.5" fill="rgb(37,0,217)" tooltip="enable"><title>(17,10 470)</title></rect><rect x="90" y="50" width="2.5" height="2.5" fill="rgb(36,0,218)" tooltip="enable"><title>(18,10 451)</title></rect><rect x="95" y="50" width="2.5" height="2.5" fill="rgb(32,0,222)" tooltip="enable"><title>(19,10 398)</title></rect><rect x="100" y="50" width="2.5" height="2.5" fill="rgb(28,0,226)" tooltip="enable"><title>(20,10 348)</title></rect><rect x="105" y="50" width="2.5" height="2.5" fill="rgb(30,0,224)" tooltip="enable"><title>(21,10 374)</title></rect><rect x="110" y="50" width="2.5" height="2.5" fill="rgb(32,0,222)" tooltip="enable"><title>(22,10 407)</title></rect><rect x="115" y="50" width="2.5" height="2.5" fill="rgb(28,0,226)" tooltip="enable"><title>(23,10 355)</title></rect><rect x="120" y="50" width="2.5" height="2.5" fill="rgb(21,0,233)" tooltip="enable"><title>(24,10 267)</title></rect><rect x="125" y="50" width="2.5" height="2.5" fill="rgb(20,0,234)" tooltip="enable"><title>(25,10 249)</title></rect><rect x="130" y="50" width="2.5" height="2.5" fill="rgb(91,0,163)" tooltip="enable"><title>(26,10 1140)</title></rect><rect x="60" y="55" width="2.5" height="2.5" fill="rgb(144,0,110)" tooltip="enable"><title>(12,11 1795)</title></rect><rect x="65" y="55" width="2.5" height="2.5" fill="rgb(78,0,176)" tooltip="enable"><title>(13,11 979)</title></rect><rect x="70" y="55" width="2.5" height="2.5" fill="rgb(66,0,188)" tooltip="enable"><title>(14,11 826)</title></rect><rect x="75" y="55" width="2.5" height="2.5" fill="rgb(58,0,196)" tooltip="enable"><title>(15,11 723)</title></rect><rect x="80" y="55" width="2.5" height="2.5" fill="rgb(44,0,210)" tooltip="enable"><title>(16,11 552)</title></rect><rect x="85" y="55" width="2.5" height="2.5" fill="rgb(44,0,210)" tooltip="enable"><title>(17,11 547)</title></rect><rect x="90" y="55" width="2.5" height="2.5" fill="rgb(44,0,210)" tooltip="enable"><title>(18,11 550)</title></rect><rect x="95" y="55" width="2.5" height="2.5" fill="rgb(33,0,221)" tooltip="enable"><title>(19,11 417)</title></rect><rect x="100" y="55" width="2.5" height="2.5" fill="rgb(27,0,227)" tooltip="enable"><title>(20,11 346)</title></rect><rect x="105" y="55" width="2.5" height="2.5" fill="rgb(35,0,219)" tooltip="enable"><title>(21,11 445)</title></rect><rect x="110" y="55" width="2.5" height="2.5" fill="rgb(40,0,214)" tooltip="enable"><title>(22,11 497)</title></rect><rect x="115" y="55" width="2.5" height="2.5" fill="rgb(33,0,221)" tooltip="enable"><title>(23,11 414)</title></rect><rect x="120" y="55" width="2.5" height="2.5" fill="rgb(22,0,232)" tooltip="enable"><title>(24,11 277)</title></rect><rect x="125" y="55" width="2.5" height="2.5" fill="rgb(21,0,233)" tooltip="enable"><title>(25,11 268)</title></rect><rect x="130" y="55" width="2.5" height="2.5" fill="rgb(221,0,33)" tooltip="enable"><title>(26,11 2751)</title></rect><rect x="65" y="60" width="2.5" height="2.5" fill="rgb(182,0,72)" tooltip="enable"><title>(13,12 2271)</title></rect><rect x="70" y="60" width="2.5" height="2.5" fill="rgb(66,0,188)" tooltip="enable"><title>(14,12 825)</title></rect><rect x="75" y="60" width="2.5" height="2.5" fill="rgb(63,0,191)" tooltip="enable"><title>(15,12 787)</title></rect><rect x="80" y="60" width="2.5" height="2.5" fill="rgb(42,0,212)" tooltip="enable"><title>(16,12 525)</title></rect><rect x="85" y="60" width="2.5" height="2.5" fill="rgb(40,0,214)" tooltip="enable"><title>(17,12 500)</title></rect><rect x="90" y="60" width="2.5" height="2.5" fill="rgb(39,0,215)" tooltip="enable"><title>(18,12 491)</title></rect><rect x="95" y="60" width="2.5" height="2.5" fill="rgb(33,0,221)" tooltip="enable"><title>(19,12 413)</title></rect><rect x="100" y="60" width="2.5" height="2.5" fill="rgb(28,0,226)" tooltip="enable"><title>(20,12 354)</title></rect><rect x="105" y="60" width="2.5" height="2.5" fill="rgb(35,0,219)" tooltip="enable"><title>(21,12 443)</title></rect><rect x="110" y="60" width="2.5" height="2.5" fill="rgb(35,0,219)" tooltip="enable"><title>(22,12 443)</title></rect><rect x="115" y="60" width="2.5" height="2.5" fill="rgb(34,0,220)" tooltip="enable"><title>(23,12 424)</title></rect><rect x="120" y="60" width="2.5" height="2.5" fill="rgb(25,0,229)" tooltip="enable"><title>(24,12 320)</title></rect><rect x="125" y="60" width="2.5" height="2.5" fill="rgb(21,0,233)" tooltip="enable"><title>(25,12 267)</title></rect><rect x="130" y="60" width="2.5" height="2.5" fill="rgb(96,0,158)" tooltip="enable"><title>(26,12 1197)</title></rect><rect x="70" y="65" width="2.5" height="2.5" fill="rgb(98,0,156)" tooltip="enable"><title>(14,13 1222)</title></rect><rect x="75" y="65" width="2.5" height="2.5" fill="rgb(95,0,159)" tooltip="enable"><title>(15,13 1188)</title></rect><rect x="80" y="65" width="2.5" height="2.5" fill="rgb(42,0,212)" tooltip="enable"><title>(16,13 534)</title></rect><rect x="85" y="65" width="2.5" height="2.5" fill="rgb(39,0,215)" tooltip="enable"><title>(17,13 487)</title></rect><rect x="90" y="65" width="2.5" height="2.5" fill="rgb(39,0,215)" tooltip="enable"><title>(18,13 493)</title></rect><rect x="95" y="65" width="2.5" height="2.5" fill="rgb(33,0,221)" tooltip="enable"><title>(19,13 416)</title></rect><rect x="100" y="65" width="2.5" height="2.5" fill="rgb(26,0,228)" tooltip="enable"><title>(20,13 330)</title></rect><rect x="105" y="65" width="2.5" height="2.5" fill="rgb(33,0,221)" tooltip="enable"><title>(21,13 418)</title></rect><rect x="110" y="65" width="2.5" height="2.5" fill="rgb(34,0,220)" tooltip="enable"><title>(22,13 427)</title></rect><rect x="115" y="65" width="2.5" height="2.5" fill="rgb(30,0,224)" tooltip="enable"><title>(23,13 382)</title></rect><rect x="120" y="65" width="2.5" height="2.5" fill="rgb(23,0,231)" tooltip="enable"><title>(24,13 293)</title></rect><rect x="125" y="65" width="2.5" height="2.5" fill="rgb(17,0,237)" tooltip="enable"><title>(25,13 214)</title></rect><rect x="130" y="65" width="2.5" height="2.5" fill="rgb(41,0,213)" tooltip="enable"><title>(26,13 513)</title></rect><rect x="75" y="70" width="2.5" height="2.5" fill="rgb(187,0,67)" tooltip="enable"><title>(15,14 2335)</title></rect><rect x="80" y="70" width="2.5" height="2.5" fill="rgb(46,0,208)" tooltip="enable"><title>(16,14 582)</title></rect><rect x="85" y="70" width="2.5" height="2.5" fill="rgb(42,0,212)" tooltip="enable"><title>(17,14 529)</title></rect><rect x="90" y="70" width="2.5" height="2.5" fill="rgb(38,0,216)" tooltip="enable"><title>(18,14 483)</title></rect><rect x="95" y="70" width="2.5" height="2.5" fill="rgb(34,0,220)" tooltip="enable"><title>(19,14 428)</title></rect><rect x="100" y="70" width="2.5" height="2.5" fill="rgb(29,0,225)" tooltip="enable"><title>(20,14 361)</title></rect><rect x="105" y="70" width="2.5" height="2.5" fill="rgb(38,0,216)" tooltip="enable"><title>(21,14 480)</title></rect><rect x="110" y="70" width="2.5" height="2.5" fill="rgb(33,0,221)" tooltip="enable"><title>(22,14 418)</title></rect><rect x="115" y="70" width="2.5" height="2.5" fill="rgb(31,0,223)" tooltip="enable"><title>(23,14 392)</title></rect><rect x="120" y="70" width="2.5" height="2.5" fill="rgb(25,0,229)" tooltip="enable"><title>(24,14 316)</title></rect><rect x="125" y="70" width="2.5" height="2.5" fill="rgb(20,0,234)" tooltip="enable"><title>(25,14 250)</title></rect><rect x="130" y="70" width="2.5" height="2.5" fill="rgb(33,0,221)" tooltip="enable"><title>(26,14 422)</title></rect><rect x="80" y="75" width="2.5" height="2.5" fill="rgb(60,0,194)" tooltip="enable"><title>(16,15 747)</title></rect><rect x="85" y="75" width="2.5" height="2.5" fill="rgb(54,0,200)" tooltip="enable"><title>(17,15 677)</title></rect><rect x="90" y="75" width="2.5" height="2.5" fill="rgb(41,0,213)" tooltip="enable"><title>(18,15 517)</title></rect><rect x="95" y="75" width="2.5" height="2.5" fill="rgb(35,0,219)" tooltip="enable"><title>(19,15 435)</title></rect><rect x="100" y="75" width="2.5" height="2.5" fill="rgb(31,0,223)" tooltip="enable"><title>(20,15 392)</title></rect><rect x="105" y="75" width="2.5" height="2.5" fill="rgb(37,0,217)" tooltip="enable"><title>(21,15 467)</title></rect><rect x="110" y="75" width="2.5" height="2.5" fill="rgb(37,0,217)" tooltip="enable"><title>(22,15 466)</title></rect><rect x="115" y="75" width="2.5" height="2.5" fill="rgb(34,0,220)" tooltip="enable"><title>(23,15 430)</title></rect><rect x="120" y="75" width="2.5" height="2.5" fill="rgb(24,0,230)" tooltip="enable"><title>(24,15 309)</title></rect><rect x="125" y="75" width="2.5" height="2.5" fill="rgb(20,0,234)" tooltip="enable"><title>(25,15 252)</title></rect><rect x="130" y="75" width="2.5" height="2.5" fill="rgb(33,0,221)" tooltip="enable"><title>(26,15 414)</title></rect><rect x="85" y="80" width="2.5" height="2.5" fill="rgb(75,0,179)" tooltip="enable"><title>(17,16 937)</title></rect><rect x="90" y="80" width="2.5" height="2.5" fill="rgb(48,0,206)" tooltip="enable"><title>(18,16 598)</title></rect><rect x="95" y="80" width="2.5" height="2.5" fill="rgb(36,0,218)" tooltip="enable"><title>(19,16 457)</title></rect><rect x="100" y="80" width="2.5" height="2.5" fill="rgb(30,0,224)" tooltip="enable"><title>(20,16 374)</title></rect><rect x="105" y="80" width="2.5" height="2.5" fill="rgb(39,0,215)" tooltip="enable"><title>(21,16 496)</title></rect><rect x="110" y="80" width="2.5" height="2.5" fill="rgb(39,0,215)" tooltip="enable"><title>(22,16 486)</title></rect><rect x="115" y="80" width="2.5" height="2.5" fill="rgb(37,0,217)" tooltip="enable"><title>(23,16 460)</title></rect><rect x="120" y="80" width="2.5" height="2.5" fill="rgb(28,0,226)" tooltip="enable"><title>(24,16 350)</title></rect><rect x="125" y="80" width="2.5" height="2.5" fill="rgb(20,0,234)" tooltip="enable"><title>(25,16 252)</title></rect><rect x="130" y="80" width="2.5" height="2.5" fill="rgb(38,0,216)" tooltip="enable"><title>(26,16 473)</title></rect><rect x="90" y="85" width="2.5" height="2.5" fill="rgb(51,0,203)" tooltip="enable"><title>(18,17 634)</title></rect><rect x="95" y="85" width="2.5" height="2.5" fill="rgb(38,0,216)" tooltip="enable"><title>(19,17 481)</title></rect><rect x="100" y="85" width="2.5" height="2.5" fill="rgb(29,0,225)" tooltip="enable"><title>(20,17 371)</title></rect><rect x="105" y="85" width="2.5" height="2.5" fill="rgb(38,0,216)" tooltip="enable"><title>(21,17 477)</title></rect><rect x="110" y="85" width="2.5" height="2.5" fill="rgb(39,0,215)" tooltip="enable"><title>(22,17 488)</title></rect><rect x="115" y="85" width="2.5" height="2.5" fill="rgb(30,0,224)" tooltip="enable"><title>(23,17 382)</title></rect><rect x="120" y="85" width="2.5" height="2.5" fill="rgb(23,0,231)" tooltip="enable"><title>(24,17 294)</title></rect><rect x="125" y="85" width="2.5" height="2.5" fill="rgb(18,0,236)" tooltip="enable"><title>(25,17 230)</title></rect><rect x="130" y="85" width="2.5" height="2.5" fill="rgb(32,0,222)" tooltip="enable"><title>(26,17 402)</title></rect><rect x="95" y="90" width="2.5" height="2.5" fill="rgb(82,0,172)" tooltip="enable"><title>(19,18 1022)</title></rect><rect x="100" y="90" width="2.5" height="2.5" fill="rgb(47,0,207)" tooltip="enable"><title>(20,18 591)</title></rect><rect x="105" y="90" width="2.5" height="2.5" fill="rgb(53,0,201)" tooltip="enable"><title>(21,18 665)</title></rect><rect x="110" y="90" width="2.5" height="2.5" fill="rgb(44,0,210)" tooltip="enable"><title>(22,18 550)</title></rect><rect x="115" y="90" width="2.5" height="2.5" fill="rgb(33,0,221)" tooltip="enable"><title>(23,18 418)</title></rect><rect x="120" y="90" width="2.5" height="2.5" fill="rgb(28,0,226)" tooltip="enable"><title>(24,18 350)</title></rect><rect x="125" y="90" width="2.5" height="2.5" fill="rgb(21,0,233)" tooltip="enable"><title>(25,18 272)</title></rect><rect x="130" y="90" width="2.5" height="2.5" fill="rgb(32,0,222)" tooltip="enable"><title>(26,18 403)</title></rect><rect x="100" y="95" width="2.5" height="2.5" fill="rgb(90,0,164)" tooltip="enable"><title>(20,19 1126)</title></rect><rect x="105" y="95" width="2.5" height="2.5" fill="rgb(78,0,176)" tooltip="enable"><title>(21,19 980)</title></rect><rect x="110" y="95" width="2.5" height="2.5" fill="rgb(43,0,211)" tooltip="enable"><title>(22,19 544)</title></rect><rect x="115" y="95" width="2.5" height="2.5" fill="rgb(33,0,221)" tooltip="enable"><title>(23,19 419)</title></rect><rect x="120" y="95" width="2.5" height="2.5" fill="rgb(26,0,228)" tooltip="enable"><title>(24,19 324)</title></rect><rect x="125" y="95" width="2.5" height="2.5" fill="rgb(20,0,234)" tooltip="enable"><title>(25,19 252)</title></rect><rect x="130" y="95" width="2.5" height="2.5" fill="rgb(36,0,218)" tooltip="enable"><title>(26,19 454)</title></rect><rect x="105" y="100" width="2.5" height="2.5" fill="rgb(110,0,144)" tooltip="enable"><title>(21,20 1378)</title></rect><rect x="110" y="100" width="2.5" height="2.5" fill="rgb(49,0,205)" tooltip="enable"><title>(22,20 614)</title></rect><rect x="115" y="100" width="2.5" height="2.5" fill="rgb(38,0,216)" tooltip="enable"><title>(23,20 479)</title></rect><rect x="120" y="100" width="2.5" height="2.5" fill="rgb(27,0,227)" tooltip="enable"><title>(24,20 342)</title></rect><rect x="125" y="100" width="2.5" height="2.5" fill="rgb(23,0,231)" tooltip="enable"><title>(25,20 297)</title></rect><rect x="130" y="100" width="2.5" height="2.5" fill="rgb(38,0,216)" tooltip="enable"><title>(26,20 477)</title></rect><rect x="110" y="105" width="2.5" height="2.5" fill="rgb(61,0,193)" tooltip="enable"><title>(22,21 769)</title></rect><rect x="115" y="105" width="2.5" height="2.5" fill="rgb(32,0,222)" tooltip="enable"><title>(23,21 400)</title></rect><rect x="120" y="105" width="2.5" height="2.5" fill="rgb(25,0,229)" tooltip="enable"><title>(24,21 322)</title></rect><rect x="125" y="105" width="2.5" height="2.5" fill="rgb(18,0,236)" tooltip="enable"><title>(25,21 235)</title></rect><rect x="130" y="105" width="2.5" height="2.5" fill="rgb(33,0,221)" tooltip="enable"><title>(26,21 411)</title></rect><rect x="115" y="110" width="2.5" height="2.5" fill="rgb(40,0,214)" tooltip="enable"><title>(23,22 508)</title></rect><rect x="120" y="110" width="2.5" height="2.5" fill="rgb(24,0,230)" tooltip="enable"><title>(24,22 310)</title></rect><rect x="125" y="110" width="2.5" height="2.5" fill="rgb(22,0,232)" tooltip="enable"><title>(25,22 285)</title></rect><rect x="130" y="110" width="2.5" height="2.5" fill="rgb(35,0,219)" tooltip="enable"><title>(26,22 436)</title></rect><rect x="120" y="115" width="2.5" height="2.5" fill="rgb(21,0,233)" tooltip="enable"><title>(24,23 272)</title></rect><rect x="125" y="115" width="2.5" height="2.5" fill="rgb(18,0,236)" tooltip="enable"><title>(25,23 230)</title></rect><rect x="130" y="115" width="2.5" height="2.5" fill="rgb(32,0,222)" tooltip="enable"><title>(26,23 401)</title></rect><rect x="125" y="120" width="2.5" height="2.5" fill="rgb(20,0,234)" tooltip="enable"><title>(25,24 254)</title></rect><rect x="130" y="120" width="2.5" height="2.5" fill="rgb(30,0,224)" tooltip="enable"><title>(26,24 385)</title></rect><rect x="130" y="125" width="2.5" height="2.5" fill="rgb(40,0,214)" tooltip="enable"><title>(26,25 502)</title></rect><text x="140" y="5" font-size="5" fill="black">0</text>
<text x="140" y="130" font-size="5" fill="black">27</text>
<polyline points="140,10,140,125" stroke="black" stroke-width="1" fill="none"/>
<text x="5" y="140" font-size="5" fill="black">0</text>
<text x="130" y="140" font-size="5" fill="black">27</text>
<polyline points="10,140,125,140" stroke="black" stroke-width="1" fill="none"/>
</svg>