<?xml version="1.0" standalone="yes"?>
<!-- SVG graphic -->
<svg xmlns='http://www.w3.org/2000/svg' xmlns:xlink='http://www.w3.org/1999/xlink'
width="150px" height="150px" preserveAspectRatio="xMinYMin meet" viewBox="0 0 150 150" version="1.1">
<rect x="5" y="0" width="2.5" height="2.5" fill="rgb(255,0,0)" tooltip="enable"><title>(1,0 2515)</title></rect><rect x="10" y="0" width="2.5" height="2.5" fill="rgb(75,0,179)" tooltip="enable"><title>(2,0 745)</title></rect><rect x="15" y="0" width="2.5" height="2.5" fill="rgb(21,0,233)" tooltip="enable"><title>(3,0 216)</title></rect><rect x="95" y="0" width="2.5" height="2.5" fill="rgb(27,0,227)" tooltip="enable"><title>(19,0 275)</title></rect><rect x="100" y="0" width="2.5" height="2.5" fill="rgb(106,0,148)" tooltip="enable"><title>(20,0 1052)</title></rect><rect x="105" y="0" width="2.5" height="2.5" fill="rgb(30,0,224)" tooltip="enable"><title>(21,0 297)</title></rect><rect x="10" y="5" width="2.5" height="2.5" fill="rgb(83,0,171)" tooltip="enable"><title>(2,1 826)</title></rect><rect x="15" y="5" width="2.5" height="2.5" fill="rgb(17,0,237)" tooltip="enable"><title>(3,1 170)</title></rect><rect x="95" y="5" width="2.5" height="2.5" fill="rgb(28,0,226)" tooltip="enable"><title>(19,1 283)</title></rect><rect x="100" y="5" width="2.5" height="2.5" fill="rgb(94,0,160)" tooltip="enable"><title>(20,1 929)</title></rect><rect x="105" y="5" width="2.5" height="2.5" fill="rgb(27,0,227)" tooltip="enable"><title>(21,1 273)</title></rect><rect x="15" y="10" width="2.5" height="2.5" fill="rgb(41,0,213)" tooltip="enable"><title>(3,2 407)</title></rect><rect x="100" y="10" width="2.5" height="2.5" fill="rgb(31,0,223)" tooltip="enable"><title>(20,2 313)</title></rect><rect x="105" y="10" width="2.5" height="2.5" fill="rgb(13,0,241)" tooltip="enable"><title>(21,2 137)</title></rect><rect x="20" y="15" width="2.5" height="2.5" fill="rgb(14,0,240)" tooltip="enable"><title>(4,3 140)</title></rect><rect x="100" y="15" width="2.5" height="2.5" fill="rgb(5,0,249)" tooltip="enable"><title>(20,3 59)</title></rect><rect x="25" y="20" width="2.5" height="2.5" fill="rgb(15,0,239)" tooltip="enable"><title>(5,4 152)</title></rect><rect x="30" y="25" width="2.5" height="2.5" fill="rgb(69,0,185)" tooltip="enable"><title>(6,5 686)</title></rect><rect x="35" y="25" width="2.5" height="2.5" fill="rgb(10,0,244)" tooltip="enable"><title>(7,5 106)</title></rect><rect x="35" y="30" width="2.5" height="2.5" fill="rgb(97,0,157)" tooltip="enable"><title>(7,6 958)</title></rect><rect x="40" y="35" width="2.5" height="2.5" fill="rgb(41,0,213)" tooltip="enable"><title>(8,7 408)</title></rect><rect x="45" y="35" width="2.5" height="2.5" fill="rgb(15,0,239)" tooltip="enable"><title>(9,7 154)</title></rect><rect x="45" y="40" width="2.5" height="2.5" fill="rgb(27,0,227)" tooltip="enable"><title>(9,8 270)</title></rect><rect x="50" y="45" width="2.5" height="2.5" fill="rgb(81,0,173)" tooltip="enable"><title>(10,9 803)</title></rect><rect x="55" y="45" width="2.5" height="2.5" fill="rgb(18,0,236)" tooltip="enable"><title>(11,9 181)</title></rect><rect x="130" y="45" width="2.5" height="2.5" fill="rgb(6,0,248)" tooltip="enable"><title>(26,9 61)</title></rect><rect x="55" y="50" width="2.5" height="2.5" fill="rgb(210,0,44)" tooltip="enable"><title>(11,10 2078)</title></rect><rect x="60" y="50" width="2.5" height="2.5" fill="rgb(12,0,242)" tooltip="enable"><title>(12,10 126)</title></rect><rect x="130" y="50" width="2.5" height="2.5" fill="rgb(51,0,203)" tooltip="enable"><title>(26,10 509)</title></rect><rect x="60" y="55" width="2.5" height="2.5" fill="rgb(61,0,193)" tooltip="enable"><title>(12,11 605)</title></rect><rect x="130" y="55" width="2.5" height="2.5" fill="rgb(231,0,23)" tooltip="enable"><title>(26,11 2281)</title></rect><rect x="65" y="60" width="2.5" height="2.5" fill="rgb(114,0,140)" tooltip="enable"><title>(13,12 1130)</title></rect><rect x="130" y="60" width="2.5" height="2.5" fill="rgb(77,0,177)" tooltip="enable"><title>(26,12 763)</title></rect><rect x="70" y="65" width="2.5" height="2.5" fill="rgb(44,0,210)" tooltip="enable"><title>(14,13 439)</title></rect><rect x="75" y="65" width="2.5" height="2.5" fill="rgb(40,0,214)" tooltip="enable"><title>(15,13 402)</title></rect><rect x="130" y="65" width="2.5" height="2.5" fill="rgb(4,0,250)" tooltip="enable"><title>(26,13 44)</title></rect><rect x="75" y="70" width="2.5" height="2.5" fill="rgb(148,0,106)" tooltip="enable"><title>(15,14 1468)</title></rect><rect x="80" y="75" width="2.5" height="2.5" fill="rgb(15,0,239)" tooltip="enable"><title>(16,15 148)</title></rect><rect x="85" y="80" width="2.5" height="2.5" fill="rgb(29,0,225)" tooltip="enable"><title>(17,16 293)</title></rect><rect x="90" y="85" width="2.5" height="2.5" fill="rgb(15,0,239)" tooltip="enable"><title>(18,17 149)</title></rect><rect x="95" y="85" width="2.5" height="2.5" fill="rgb(6,0,248)" tooltip="enable"><title>(19,17 69)</title></rect><rect x="95" y="90" width="2.5" height="2.5" fill="rgb(44,0,210)" tooltip="enable"><title>(19,18 437)</title></rect><rect x="100" y="90" width="2.5" height="2.5" fill="rgb(20,0,234)" tooltip="enable"><title>(20,18 206)</title></rect><rect x="105" y="90" width="2.5" height="2.5" fill="rgb(14,0,240)" tooltip="enable"><title>(21,18 139)</title></rect><rect x="100" y="95" width="2.5" height="2.5" fill="rgb(66,0,188)" tooltip="enable"><title>(20,19 658)</title></rect><rect x="105" y="95" width="2.5" height="2.5" fill="rgb(43,0,211)" tooltip="enable"><title>(21,19 433)</title></rect><rect x="105" y="100" width="2.5" height="2.5" fill="rgb(80,0,174)" tooltip="enable"><title>(21,20 795)</title></rect><rect x="110" y="105" width="2.5" height="2.5" fill="rgb(26,0,228)" tooltip="enable"><title>(22,21 266)</title></rect><rect x="130" y="125" width="2.5" height="2.5" fill="rgb(6,0,248)" tooltip="enable"><title>(26,25 62)</title></rect><text x="140" y="5" font-size="5" fill="black">0</text>
<text x="140" y="130" font-size="5" fill="black">27</text>
<polyline points="140,10,140,125" stroke="black" stroke-width="1" fill="none"/>
<text x="5" y="140" font-size="5" fill="black">0</text>
<text x="130" y="140" font-size="5" fill="black">27</text>
<polyline points="10,140,125,140" stroke="black" stroke-width="1" fill="none"/>
</svg>