<?xml version="1.0" standalone="yes"?>
<!-- SVG graphic -->
<svg xmlns='http://www.w3.org/2000/svg' xmlns:xlink='http://www.w3.org/1999/xlink'
 version="1.1">
<rect x="0" y="0" width="6" height="200" stroke="black" stroke-width="1" fill="blue" tooltip="enable"><title>(0,11067)</title></rect><rect x="6" y="103.461" width="6" height="96.5393" stroke="black" stroke-width="1" fill="blue" tooltip="enable"><title>(0.0399344,5342)</title></rect><rect x="12" y="132.321" width="6" height="67.6787" stroke="black" stroke-width="1" fill="blue" tooltip="enable"><title>(0.0798688,3745)</title></rect><rect x="18" y="143.688" width="6" height="56.3116" stroke="black" stroke-width="1" fill="blue" tooltip="enable"><title>(0.119803,3116)</title></rect><rect x="24" y="149.833" width="6" height="50.1672" stroke="black" stroke-width="1" fill="blue" tooltip="enable"><title>(0.159738,2776)</title></rect><rect x="30" y="155.345" width="6" height="44.6553" stroke="black" stroke-width="1" fill="blue" tooltip="enable"><title>(0.199672,2471)</title></rect><rect x="36" y="160.423" width="6" height="39.5771" stroke="black" stroke-width="1" fill="blue" tooltip="enable"><title>(0.239606,2190)</title></rect><rect x="42" y="162.194" width="6" height="37.8061" stroke="black" stroke-width="1" fill="blue" tooltip="enable"><title>(0.279541,2092)</title></rect><rect x="48" y="166.947" width="6" height="33.0532" stroke="black" stroke-width="1" fill="blue" tooltip="enable"><title>(0.319475,1829)</title></rect><rect x="54" y="168.176" width="6" height="31.8243" stroke="black" stroke-width="1" fill="blue" tooltip="enable"><title>(0.35941,1761)</title></rect><rect x="60" y="171.32" width="6" height="28.6799" stroke="black" stroke-width="1" fill="blue" tooltip="enable"><title>(0.399344,1587)</title></rect><rect x="66" y="174.483" width="6" height="25.5173" stroke="black" stroke-width="1" fill="blue" tooltip="enable"><title>(0.439279,1412)</title></rect><rect x="72" y="175.278" width="6" height="24.7221" stroke="black" stroke-width="1" fill="blue" tooltip="enable"><title>(0.479213,1368)</title></rect><rect x="78" y="178.205" width="6" height="21.7945" stroke="black" stroke-width="1" fill="blue" tooltip="enable"><title>(0.519147,1206)</title></rect><rect x="84" y="180.464" width="6" height="19.5356" stroke="black" stroke-width="1" fill="blue" tooltip="enable"><title>(0.559082,1081)</title></rect><rect x="90" y="181.585" width="6" height="18.4151" stroke="black" stroke-width="1" fill="blue" tooltip="enable"><title>(0.599016,1019)</title></rect><rect x="96" y="182.434" width="6" height="17.5657" stroke="black" stroke-width="1" fill="blue" tooltip="enable"><title>(0.638951,972)</title></rect><rect x="102" y="184.26" width="6" height="15.7405" stroke="black" stroke-width="1" fill="blue" tooltip="enable"><title>(0.678885,871)</title></rect><rect x="108" y="185.217" width="6" height="14.7827" stroke="black" stroke-width="1" fill="blue" tooltip="enable"><title>(0.71882,818)</title></rect><rect x="114" y="185.904" width="6" height="14.096" stroke="black" stroke-width="1" fill="blue" tooltip="enable"><title>(0.758754,780)</title></rect><rect x="120" y="187.458" width="6" height="12.5418" stroke="black" stroke-width="1" fill="blue" tooltip="enable"><title>(0.798688,694)</title></rect><rect x="126" y="188.651" width="6" height="11.3491" stroke="black" stroke-width="1" fill="blue" tooltip="enable"><title>(0.838623,628)</title></rect><rect x="132" y="189.247" width="6" height="10.7527" stroke="black" stroke-width="1" fill="blue" tooltip="enable"><title>(0.878557,595)</title></rect><rect x="138" y="189.175" width="6" height="10.825" stroke="black" stroke-width="1" fill="blue" tooltip="enable"><title>(0.918492,599)</title></rect><rect x="144" y="190.675" width="6" height="9.32502" stroke="black" stroke-width="1" fill="blue" tooltip="enable"><title>(0.958426,516)</title></rect><rect x="150" y="191.85" width="6" height="8.15036" stroke="black" stroke-width="1" fill="blue" tooltip="enable"><title>(0.99836,451)</title></rect><rect x="156" y="191.145" width="6" height="8.85515" stroke="black" stroke-width="1" fill="blue" tooltip="enable"><title>(1.03829,490)</title></rect><rect x="162" y="191.669" width="6" height="8.33107" stroke="black" stroke-width="1" fill="blue" tooltip="enable"><title>(1.07823,461)</title></rect><rect x="168" y="192.934" width="6" height="7.06605" stroke="black" stroke-width="1" fill="blue" tooltip="enable"><title>(1.11816,391)</title></rect><rect x="174" y="193.259" width="6" height="6.74076" stroke="black" stroke-width="1" fill="blue" tooltip="enable"><title>(1.1581,373)</title></rect><rect x="180" y="193.675" width="6" height="6.32511" stroke="black" stroke-width="1" fill="blue" tooltip="enable"><title>(1.19803,350)</title></rect><rect x="186" y="194.904" width="6" height="5.09623" stroke="black" stroke-width="1" fill="blue" tooltip="enable"><title>(1.23797,282)</title></rect><rect x="192" y="194.416" width="6" height="5.58417" stroke="black" stroke-width="1" fill="blue" tooltip="enable"><title>(1.2779,309)</title></rect><rect x="198" y="194.542" width="6" height="5.45767" stroke="black" stroke-width="1" fill="blue" tooltip="enable"><title>(1.31784,302)</title></rect><rect x="204" y="195.247" width="6" height="4.75287" stroke="black" stroke-width="1" fill="blue" tooltip="enable"><title>(1.35777,263)</title></rect><rect x="210" y="195.229" width="6" height="4.77094" stroke="black" stroke-width="1" fill="blue" tooltip="enable"><title>(1.3977,264)</title></rect><rect x="216" y="195.789" width="6" height="4.21072" stroke="black" stroke-width="1" fill="blue" tooltip="enable"><title>(1.43764,233)</title></rect><rect x="222" y="196.331" width="6" height="3.66856" stroke="black" stroke-width="1" fill="blue" tooltip="enable"><title>(1.47757,203)</title></rect><rect x="228" y="196.295" width="6" height="3.70471" stroke="black" stroke-width="1" fill="blue" tooltip="enable"><title>(1.51751,205)</title></rect><rect x="234" y="196.241" width="6" height="3.75892" stroke="black" stroke-width="1" fill="blue" tooltip="enable"><title>(1.55744,208)</title></rect><rect x="240" y="196.819" width="6" height="3.18063" stroke="black" stroke-width="1" fill="blue" tooltip="enable"><title>(1.59738,176)</title></rect><rect x="246" y="196.801" width="6" height="3.1987" stroke="black" stroke-width="1" fill="blue" tooltip="enable"><title>(1.63731,177)</title></rect><rect x="252" y="196.982" width="6" height="3.01798" stroke="black" stroke-width="1" fill="blue" tooltip="enable"><title>(1.67725,167)</title></rect><rect x="258" y="197.127" width="6" height="2.87341" stroke="black" stroke-width="1" fill="blue" tooltip="enable"><title>(1.71718,159)</title></rect><rect x="264" y="197.578" width="6" height="2.42161" stroke="black" stroke-width="1" fill="blue" tooltip="enable"><title>(1.75711,134)</title></rect><rect x="270" y="197.831" width="6" height="2.16861" stroke="black" stroke-width="1" fill="blue" tooltip="enable"><title>(1.79705,120)</title></rect><rect x="276" y="197.633" width="6" height="2.3674" stroke="black" stroke-width="1" fill="blue" tooltip="enable"><title>(1.83698,131)</title></rect><rect x="282" y="197.687" width="6" height="2.31318" stroke="black" stroke-width="1" fill="blue" tooltip="enable"><title>(1.87692,128)</title></rect><rect x="288" y="197.795" width="6" height="2.20475" stroke="black" stroke-width="1" fill="blue" tooltip="enable"><title>(1.91685,122)</title></rect><rect x="294" y="198.157" width="6" height="1.84332" stroke="black" stroke-width="1" fill="blue" tooltip="enable"><title>(1.95679,102)</title></rect><rect x="300" y="198.337" width="6" height="1.6626" stroke="black" stroke-width="1" fill="blue" tooltip="enable"><title>(1.99672,92)</title></rect><rect x="306" y="198.102" width="6" height="1.89753" stroke="black" stroke-width="1" fill="blue" tooltip="enable"><title>(2.03666,105)</title></rect><rect x="312" y="198.355" width="6" height="1.64453" stroke="black" stroke-width="1" fill="blue" tooltip="enable"><title>(2.07659,91)</title></rect><rect x="318" y="198.464" width="6" height="1.5361" stroke="black" stroke-width="1" fill="blue" tooltip="enable"><title>(2.11652,85)</title></rect><rect x="324" y="198.663" width="6" height="1.33731" stroke="black" stroke-width="1" fill="blue" tooltip="enable"><title>(2.15646,74)</title></rect><rect x="330" y="198.699" width="6" height="1.30117" stroke="black" stroke-width="1" fill="blue" tooltip="enable"><title>(2.19639,72)</title></rect><rect x="336" y="198.753" width="6" height="1.24695" stroke="black" stroke-width="1" fill="blue" tooltip="enable"><title>(2.23633,69)</title></rect><rect x="342" y="198.825" width="6" height="1.17466" stroke="black" stroke-width="1" fill="blue" tooltip="enable"><title>(2.27626,65)</title></rect><rect x="348" y="198.843" width="6" height="1.15659" stroke="black" stroke-width="1" fill="blue" tooltip="enable"><title>(2.3162,64)</title></rect><rect x="354" y="198.771" width="6" height="1.22888" stroke="black" stroke-width="1" fill="blue" tooltip="enable"><title>(2.35613,68)</title></rect><rect x="360" y="199.349" width="6" height="0.650583" stroke="black" stroke-width="1" fill="blue" tooltip="enable"><title>(2.39607,36)</title></rect><rect x="366" y="199.133" width="6" height="0.867444" stroke="black" stroke-width="1" fill="blue" tooltip="enable"><title>(2.436,48)</title></rect><rect x="372" y="199.295" width="6" height="0.704798" stroke="black" stroke-width="1" fill="blue" tooltip="enable"><title>(2.47593,39)</title></rect><rect x="378" y="199.06" width="6" height="0.939731" stroke="black" stroke-width="1" fill="blue" tooltip="enable"><title>(2.51587,52)</title></rect><rect x="384" y="199.205" width="6" height="0.795157" stroke="black" stroke-width="1" fill="blue" tooltip="enable"><title>(2.5558,44)</title></rect><rect x="390" y="199.277" width="6" height="0.72287" stroke="black" stroke-width="1" fill="blue" tooltip="enable"><title>(2.59574,40)</title></rect><rect x="396" y="199.187" width="6" height="0.813228" stroke="black" stroke-width="1" fill="blue" tooltip="enable"><title>(2.63567,45)</title></rect><rect x="402" y="199.53" width="6" height="0.469865" stroke="black" stroke-width="1" fill="blue" tooltip="enable"><title>(2.67561,26)</title></rect><rect x="408" y="199.53" width="6" height="0.469865" stroke="black" stroke-width="1" fill="blue" tooltip="enable"><title>(2.71554,26)</title></rect><rect x="414" y="199.476" width="6" height="0.524081" stroke="black" stroke-width="1" fill="blue" tooltip="enable"><title>(2.75547,29)</title></rect><rect x="420" y="199.386" width="6" height="0.614439" stroke="black" stroke-width="1" fill="blue" tooltip="enable"><title>(2.79541,34)</title></rect><rect x="426" y="199.494" width="6" height="0.506009" stroke="black" stroke-width="1" fill="blue" tooltip="enable"><title>(2.83534,28)</title></rect><rect x="432" y="199.44" width="6" height="0.560224" stroke="black" stroke-width="1" fill="blue" tooltip="enable"><title>(2.87528,31)</title></rect><rect x="438" y="199.729" width="6" height="0.271076" stroke="black" stroke-width="1" fill="blue" tooltip="enable"><title>(2.91521,15)</title></rect><rect x="444" y="199.729" width="6" height="0.271076" stroke="black" stroke-width="1" fill="blue" tooltip="enable"><title>(2.95515,15)</title></rect><rect x="450" y="199.584" width="6" height="0.41565" stroke="black" stroke-width="1" fill="blue" tooltip="enable"><title>(2.99508,23)</title></rect><rect x="456" y="199.675" width="6" height="0.325291" stroke="black" stroke-width="1" fill="blue" tooltip="enable"><title>(3.03502,18)</title></rect><rect x="462" y="199.602" width="6" height="0.397578" stroke="black" stroke-width="1" fill="blue" tooltip="enable"><title>(3.07495,22)</title></rect><rect x="468" y="199.693" width="6" height="0.30722" stroke="black" stroke-width="1" fill="blue" tooltip="enable"><title>(3.11488,17)</title></rect><rect x="474" y="199.711" width="6" height="0.289148" stroke="black" stroke-width="1" fill="blue" tooltip="enable"><title>(3.15482,16)</title></rect><rect x="480" y="199.584" width="6" height="0.41565" stroke="black" stroke-width="1" fill="blue" tooltip="enable"><title>(3.19475,23)</title></rect><rect x="486" y="199.819" width="6" height="0.180717" stroke="black" stroke-width="1" fill="blue" tooltip="enable"><title>(3.23469,10)</title></rect><rect x="492" y="199.602" width="6" height="0.397578" stroke="black" stroke-width="1" fill="blue" tooltip="enable"><title>(3.27462,22)</title></rect><rect x="498" y="199.783" width="6" height="0.216861" stroke="black" stroke-width="1" fill="blue" tooltip="enable"><title>(3.31456,12)</title></rect><rect x="504" y="199.837" width="6" height="0.162646" stroke="black" stroke-width="1" fill="blue" tooltip="enable"><title>(3.35449,9)</title></rect><rect x="510" y="199.711" width="6" height="0.289148" stroke="black" stroke-width="1" fill="blue" tooltip="enable"><title>(3.39443,16)</title></rect><rect x="516" y="199.855" width="6" height="0.144574" stroke="black" stroke-width="1" fill="blue" tooltip="enable"><title>(3.43436,8)</title></rect><rect x="522" y="199.892" width="6" height="0.10843" stroke="black" stroke-width="1" fill="blue" tooltip="enable"><title>(3.47429,6)</title></rect><rect x="528" y="199.892" width="6" height="0.10843" stroke="black" stroke-width="1" fill="blue" tooltip="enable"><title>(3.51423,6)</title></rect><rect x="534" y="199.91" width="6" height="0.0903587" stroke="black" stroke-width="1" fill="blue" tooltip="enable"><title>(3.55416,5)</title></rect><rect x="540" y="199.855" width="6" height="0.144574" stroke="black" stroke-width="1" fill="blue" tooltip="enable"><title>(3.5941,8)</title></rect><rect x="546" y="199.892" width="6" height="0.10843" stroke="black" stroke-width="1" fill="blue" tooltip="enable"><title>(3.63403,6)</title></rect><rect x="552" y="199.928" width="6" height="0.072287" stroke="black" stroke-width="1" fill="blue" tooltip="enable"><title>(3.67397,4)</title></rect><rect x="558" y="199.982" width="6" height="0.0180717" stroke="black" stroke-width="1" fill="blue" tooltip="enable"><title>(3.7139,1)</title></rect><rect x="564" y="199.946" width="6" height="0.0542152" stroke="black" stroke-width="1" fill="blue" tooltip="enable"><title>(3.75384,3)</title></rect><rect x="570" y="199.928" width="6" height="0.072287" stroke="black" stroke-width="1" fill="blue" tooltip="enable"><title>(3.79377,4)</title></rect><rect x="576" y="200" width="6" height="0" stroke="black" stroke-width="1" fill="blue" tooltip="enable"><title>(3.8337,0)</title></rect><rect x="582" y="199.964" width="6" height="0.0361435" stroke="black" stroke-width="1" fill="blue" tooltip="enable"><title>(3.87364,2)</title></rect><rect x="588" y="199.946" width="6" height="0.0542152" stroke="black" stroke-width="1" fill="blue" tooltip="enable"><title>(3.91357,3)</title></rect><rect x="594" y="200" width="6" height="0" stroke="black" stroke-width="1" fill="blue" tooltip="enable"><title>(3.95351,0)</title></rect><text x="30" y="240" font-size="20" fill="black">0</text>
<text x="600" y="240" font-size="20" fill="black">3.99344</text>
<polyline points="0,220,600,220" stroke="black" stroke-width="1" fill="none"/>
<text x="720" y="20" font-size="20" fill="black">11067</text>
<text x="720" y="200" font-size="20" fill="black">0</text>
<polyline points="660,0,660,200" stroke="black" stroke-width="1" fill="none"/>
</svg>